<?xml version="1.0" standalone="no"?>
<!DOCTYPE svg PUBLIC "-//W3C//DTD SVG 20010904//EN"
 "http://www.w3.org/TR/2001/REC-SVG-20010904/DTD/svg10.dtd">
<svg version="1.0" xmlns="http://www.w3.org/2000/svg"
 width="500.000000pt" height="500.000000pt" viewBox="0 0 500.000000 500.000000"
 preserveAspectRatio="xMidYMid meet">
<metadata>
Created by potrace 1.14, written by Peter Selinger 2001-2017
</metadata>
<g transform="translate(0.000000,500.000000) scale(0.100000,-0.100000)"
fill="#000000" stroke="none">
<path d="M3541 4928 c-23 -33 -43 -69 -46 -81 -4 -12 -14 -33 -24 -46 -18 -23
-19 -23 -67 -8 -101 33 -228 42 -306 21 -229 -60 -380 -248 -391 -489 -3 -55
0 -79 17 -155 3 -14 21 -56 40 -95 33 -66 72 -112 158 -185 l38 -32 -33 -38
c-17 -21 -48 -69 -67 -106 -19 -38 -38 -71 -41 -74 -4 -3 -47 -3 -95 0 l-89 5
0 140 c0 166 -9 196 -70 225 -36 17 -67 19 -295 22 -284 2 -303 -1 -351 -65
-23 -31 -24 -39 -23 -179 0 -128 -2 -148 -15 -149 -9 -1 -100 0 -203 1 -167 1
-191 -1 -230 -19 -86 -39 -221 -196 -290 -336 -21 -44 -38 -80 -37 -80 1 0 -5
-22 -14 -50 -54 -164 -76 -418 -48 -556 6 -30 13 -65 15 -79 31 -162 111 -326
219 -448 75 -84 213 -211 241 -221 6 -2 13 -7 16 -11 3 -4 50 -30 105 -57 97
-49 181 -76 275 -88 25 -4 61 -9 80 -12 50 -8 414 -7 485 1 53 6 86 13 170 32
11 3 31 7 44 10 13 3 40 12 60 20 20 9 41 17 47 18 28 5 163 79 199 110 91 77
108 92 123 110 10 10 22 23 27 30 81 90 215 306 230 371 1 6 7 23 14 38 6 16
9 32 6 37 -3 5 -1 11 4 14 10 7 33 102 35 151 1 17 4 35 7 40 8 15 4 233 -5
285 -34 200 -88 343 -179 466 -52 70 -74 93 -148 153 -88 72 -104 101 -41 74
50 -22 251 -26 306 -7 21 8 49 16 62 18 56 10 160 73 220 132 88 87 197 248
210 309 1 6 10 44 21 85 19 74 22 167 9 245 -4 22 -9 52 -12 68 -13 77 -74
214 -122 270 -45 53 -111 117 -121 117 -5 0 -7 19 -4 41 5 34 2 44 -13 52 -42
24 -61 16 -103 -45z m55 -184 c78 -84 145 -211 159 -304 22 -149 -7 -325 -69
-420 -30 -45 -121 -140 -135 -140 -6 0 -11 -3 -11 -7 0 -8 -25 -24 -96 -64
-69 -39 -185 -66 -274 -63 -47 1 -97 4 -112 7 -20 4 -30 0 -42 -18 -14 -21
-14 -65 0 -87 3 -4 -18 -8 -45 -8 -28 0 -51 1 -51 3 1 7 30 78 48 117 12 25
22 53 22 63 0 15 5 17 28 13 15 -4 40 -9 56 -12 16 -3 33 -7 37 -10 8 -5 112
-5 144 -1 249 38 438 262 436 517 0 47 -2 92 -4 100 -24 109 -79 209 -147 269
l-39 33 27 24 c15 13 28 24 30 24 2 0 19 -16 38 -36z m-417 -23 c-12 -9 -40
-30 -61 -48 -33 -27 -43 -31 -63 -23 -14 5 -25 6 -25 2 0 -4 -4 -1 -9 7 -9 14
-3 46 7 37 3 -3 11 -1 19 6 17 14 93 34 130 34 l26 0 -24 -15z m141 -29 c0 -5
-9 -27 -20 -50 -11 -23 -25 -53 -30 -67 -12 -31 -21 -31 -71 1 -36 22 -39 27
-27 42 19 25 38 39 83 62 42 21 65 25 65 12z m464 -50 c47 -94 69 -174 70
-254 1 -43 5 -78 9 -78 5 0 5 -6 0 -12 -4 -7 -8 -21 -9 -30 -1 -10 -2 -19 -4
-20 -1 -2 -3 -12 -4 -23 -6 -47 -18 -85 -27 -85 -6 0 -8 4 -4 9 18 29 24 186
12 291 -9 77 -40 171 -85 254 -3 5 0 6 7 2 6 -4 22 -28 35 -54z m-784 -2 c0
-4 9 -10 19 -13 26 -6 22 -20 -28 -98 l-42 -65 -50 23 c-27 13 -49 27 -49 31
1 22 52 88 93 119 26 20 57 22 57 3z m419 -17 c6 -21 13 -64 17 -97 l7 -58
-34 18 c-19 10 -40 19 -48 20 -36 6 -36 24 -1 89 19 36 38 65 42 65 4 0 12
-17 17 -37z m147 -128 c4 -17 11 -35 16 -41 5 -7 8 -16 7 -20 -1 -5 0 -11 1
-14 15 -38 11 -194 -6 -221 -2 -4 -27 4 -54 17 -42 20 -50 28 -46 47 3 12 12
54 20 94 9 40 14 87 11 105 -2 18 -7 58 -10 88 l-5 54 29 -40 c16 -22 33 -53
37 -69z m-418 40 c20 -14 41 -25 47 -25 19 -1 50 -31 40 -38 -6 -4 -21 -28
-34 -55 -20 -38 -28 -46 -44 -41 -37 12 -127 54 -127 59 0 18 66 125 76 125 3
0 22 -11 42 -25z m258 -115 l32 -12 -15 -61 c-7 -34 -17 -65 -22 -70 -4 -4
-35 6 -69 23 -34 16 -69 30 -76 30 -12 0 -11 7 3 38 10 20 24 51 31 68 l13 31
36 -18 c20 -10 50 -23 67 -29z m-528 -9 c39 -19 51 -29 46 -40 -4 -9 -12 -42
-19 -75 -7 -32 -19 -62 -27 -67 -11 -7 -11 -12 1 -30 7 -12 15 -53 17 -91 3
-68 3 -69 -14 -46 -61 80 -100 244 -78 333 2 11 5 26 5 33 1 8 4 12 9 10 4 -1
31 -14 60 -27z m225 -91 c26 -7 47 -13 47 -14 0 -1 -9 -29 -20 -61 -12 -33
-23 -66 -25 -73 -4 -11 -10 -10 -32 2 -30 16 -61 27 -67 23 -1 -1 -11 5 -21
13 -14 11 -16 24 -12 62 3 26 11 57 17 68 10 18 13 19 38 7 15 -8 48 -20 75
-27z m167 -73 c19 -8 50 -20 68 -27 18 -7 35 -16 38 -21 3 -5 -13 -36 -36 -69
l-41 -60 -59 30 c-32 16 -61 34 -64 38 -3 5 2 31 12 58 20 57 31 76 40 70 4
-2 23 -10 42 -19z m-248 -104 c24 -9 45 -18 47 -19 8 -7 -55 -144 -65 -144
-14 0 -24 37 -30 109 -3 30 -7 58 -10 63 -8 12 11 10 58 -9z m473 -4 c5 -5 17
-9 26 -9 32 0 29 -16 -11 -70 -22 -30 -40 -50 -40 -46 0 6 -10 -1 -43 -30 -9
-8 -16 -8 -24 1 -7 7 -9 16 -6 19 4 3 -1 6 -10 6 -28 0 -27 16 7 67 18 27 35
57 39 67 7 18 40 15 62 -5z m316 -32 c-10 -9 -11 -8 -5 6 3 10 9 15 12 12 3
-3 0 -11 -7 -18z m-610 -53 l52 -27 -24 -18 c-31 -25 -141 -79 -150 -74 -5 4
60 145 67 145 1 0 26 -12 55 -26z m177 -76 c25 -3 10 -18 -42 -42 -29 -14 -71
-28 -92 -31 l-39 -7 47 31 c25 17 49 39 52 47 5 12 14 15 34 10 15 -4 33 -7
40 -8z m-931 -41 c3 -4 -9 -8 -28 -8 -19 -1 -43 -3 -54 -4 -11 -2 -69 -6 -130
-9 -149 -8 -185 -14 -223 -38 l-32 -20 3 24 c2 12 17 32 34 43 27 19 44 21
226 19 109 0 200 -4 204 -7z m41 -235 l3 -72 -223 2 -223 3 0 62 c0 49 3 63
16 66 9 3 68 5 130 6 62 1 114 3 115 4 1 1 42 2 91 2 l88 0 3 -73z m-786 -197
c2 -25 0 -53 -3 -63 -4 -9 -4 -21 -1 -26 4 -8 3 -365 -1 -436 -2 -23 -6 -25
-59 -28 -42 -2 -58 0 -59 10 -7 67 -5 565 1 573 5 6 33 12 63 13 l55 2 4 -45z
m1001 17 c0 -12 -1 -28 -2 -36 -1 -11 -48 -14 -243 -15 -134 -2 -322 -3 -418
-4 -108 -1 -175 -6 -176 -12 0 -5 -4 -26 -8 -45 -4 -19 -9 -62 -11 -95 -11
-155 -18 -284 -18 -322 0 -34 -4 -43 -18 -43 -17 0 -18 19 -16 293 l2 292 45
5 c25 3 229 5 455 4 l409 -1 -1 -21z m241 10 c-2 -9 -5 -125 -7 -257 l-2 -240
-60 2 c-33 1 -63 2 -66 2 -3 1 -5 82 -5 181 1 99 -2 180 -5 180 -6 0 -1 87 6
108 2 6 0 12 -5 12 -5 0 -7 6 -4 14 4 10 25 14 79 15 64 1 73 -1 69 -17z m163
-75 c19 -24 20 -31 9 -42 -13 -13 -45 -123 -51 -175 -2 -14 -7 -50 -11 -80 -4
-30 -7 -67 -7 -82 0 -16 -3 -28 -8 -28 -12 0 -16 424 -4 461 6 18 7 17 28 -4
12 -12 32 -35 44 -50z m-1627 12 c0 -36 -17 -72 -30 -64 -10 6 -46 -15 -48
-28 -5 -27 -39 -71 -78 -97 -138 -95 -48 80 101 197 22 17 43 29 47 26 5 -2 8
-18 8 -34z m-207 -341 c-41 -69 -47 -119 -47 -353 1 -104 3 -236 5 -292 2 -62
0 -104 -6 -105 -13 -4 -63 146 -73 219 -9 66 -8 319 2 373 17 95 41 180 50
181 52 6 69 9 74 13 15 16 12 -7 -5 -36z m1230 -87 c5 0 5 -6 1 -12 -3 -6 -7
-41 -8 -77 l-1 -67 -104 2 c-62 2 -107 7 -111 13 -11 18 -4 131 8 139 9 5 183
7 215 2z m-440 -90 c16 -13 12 -40 -7 -53 -20 -14 -53 -8 -70 11 -17 18 -17
20 3 40 22 22 49 23 74 2z m966 -22 c18 -20 20 -34 20 -153 0 -72 -3 -141 -6
-153 -7 -31 -42 -38 -171 -38 -150 1 -145 -6 -144 180 0 128 1 135 25 159 21
21 33 23 139 25 109 2 117 1 137 -20z m-1242 -87 c22 -25 23 -36 23 -163 0
-176 3 -172 -152 -172 -62 0 -124 2 -138 6 -36 9 -47 47 -43 152 2 50 3 97 4
105 1 50 11 78 31 87 13 5 74 10 137 11 113 0 116 0 138 -26z m1153 -587 c1
-132 1 -259 1 -281 -1 -39 -4 -43 -63 -83 -82 -55 -90 -47 -75 74 2 11 0 35
-4 53 -4 17 -4 32 0 32 8 0 6 124 -3 139 -4 6 -4 11 1 11 4 0 8 34 8 75 0 41
-4 75 -8 75 -5 0 -5 5 -1 12 4 6 8 34 9 62 1 28 3 56 4 63 1 12 109 23 123 13
4 -3 7 -113 8 -245z m117 147 c1 -59 5 -125 9 -147 11 -72 11 -99 -3 -139 -7
-21 -13 -51 -13 -67 0 -16 -4 -29 -8 -29 -7 0 -10 477 -4 488 1 1 5 2 10 2 4
0 8 -48 9 -108z m-1360 -32 c1 -25 4 -150 6 -277 4 -263 5 -259 -69 -205 -68
50 -65 37 -60 288 2 126 5 231 5 234 1 3 27 5 59 5 l57 0 2 -45z m129 -100
c10 -393 11 -375 -11 -378 -20 -3 -20 2 -19 255 2 298 1 276 15 271 8 -3 13
-53 15 -148z"/>
<path d="M2860 2882 c-30 -2 -58 -6 -62 -10 -4 -4 -10 -51 -12 -104 -4 -79 -2
-98 10 -109 19 -15 173 -14 189 2 11 11 14 204 3 215 -9 8 -51 10 -128 6z"/>
<path d="M1637 2804 c-1 -1 -20 -4 -43 -6 -23 -3 -46 -8 -51 -11 -12 -7 -12
-201 0 -213 4 -4 49 -7 99 -6 77 1 93 4 102 19 13 22 17 182 6 203 -6 10 -25
15 -60 15 -28 0 -52 0 -53 -1z"/>
<path d="M1568 4143 c-2 -20 -11 -29 -38 -38 -23 -8 -36 -19 -38 -33 -3 -17 3
-22 33 -28 27 -5 39 -13 46 -33 19 -49 53 -49 64 0 4 16 10 29 13 30 23 2 56
10 60 14 11 11 -11 37 -38 47 -22 7 -33 18 -37 39 -4 24 -11 29 -34 29 -23 0
-28 -5 -31 -27z"/>
<path d="M4014 3855 c-10 -25 -21 -34 -41 -37 -22 -2 -28 -8 -28 -28 0 -19 6
-26 29 -30 22 -4 31 -13 40 -40 8 -24 18 -36 34 -38 12 -2 23 1 23 7 1 6 3 16
4 21 1 6 3 19 4 30 1 14 8 20 24 20 35 0 48 18 34 47 -6 13 -16 22 -23 19 -16
-6 -47 22 -39 34 6 9 -12 23 -33 26 -8 2 -20 -13 -28 -31z"/>
<path d="M794 3728 c-4 -6 -12 -29 -19 -52 -11 -37 -17 -42 -59 -55 -35 -11
-48 -21 -53 -39 -7 -28 5 -37 58 -46 40 -6 54 -22 63 -69 7 -38 14 -46 37 -44
20 1 37 27 53 80 6 18 31 31 77 41 30 6 42 36 23 53 -11 11 -56 27 -79 28 -5
0 -15 20 -22 44 -7 25 -17 49 -21 53 -14 14 -51 18 -58 6z"/>
<path d="M4133 3499 c-62 -12 -100 -32 -189 -102 -43 -34 -83 -62 -89 -62 -12
1 -104 17 -125 22 -81 18 -143 17 -181 -2 -37 -20 -36 -34 4 -63 17 -13 57
-40 87 -62 30 -21 66 -47 79 -57 l24 -19 -31 -34 c-17 -18 -31 -36 -30 -39 3
-26 -9 -41 -52 -66 -67 -40 -70 -56 -23 -106 21 -22 50 -53 64 -68 14 -15 39
-37 56 -49 29 -20 31 -20 45 -4 23 27 58 92 58 107 0 20 108 87 125 78 17 -10
66 -72 113 -141 19 -30 41 -56 49 -59 25 -10 40 27 37 91 -3 62 -5 80 -24 172
l-11 52 58 59 c63 64 124 150 140 198 18 54 2 119 -37 143 -26 16 -96 22 -147
11z m73 -100 c-2 -15 -9 -44 -16 -63 l-12 -36 -34 35 c-34 35 -35 35 -58 18
-14 -10 -29 -28 -35 -41 -6 -13 -23 -25 -41 -29 -18 -3 -49 -25 -76 -53 -31
-32 -52 -46 -64 -43 -17 5 -17 6 3 31 12 15 49 53 82 86 63 61 172 120 227
123 26 1 28 -2 24 -28z m-462 -435 c17 -17 22 -69 7 -78 -11 -7 -81 69 -81 88
0 30 40 25 74 -10z"/>
<path d="M629 3333 c0 -4 -3 -17 -5 -28 -2 -11 -5 -27 -6 -35 -1 -10 -14 -16
-36 -17 -42 -2 -61 -18 -55 -43 5 -19 17 -25 68 -32 14 -2 21 -12 23 -33 4
-33 14 -48 37 -51 18 -3 47 37 43 57 -2 7 13 17 36 24 49 14 67 38 45 60 -8 9
-28 17 -45 18 -25 2 -30 8 -39 42 -9 33 -16 41 -38 43 -15 2 -27 0 -28 -5z"/>
<path d="M816 3042 c-4 -11 -19 -28 -33 -37 -23 -15 -24 -19 -11 -29 8 -6 23
-24 33 -39 l18 -28 33 37 c19 20 34 39 34 43 0 3 -16 21 -34 40 -32 31 -34 32
-40 13z"/>
<path d="M376 3043 c-10 -10 -7 -20 10 -38 19 -18 44 -4 44 24 0 17 -40 27
-54 14z"/>
<path d="M320 2918 c-43 -16 -47 -52 -9 -76 16 -10 24 -9 44 5 29 22 31 33 8
60 -14 16 -23 18 -43 11z"/>
<path d="M580 2817 c-44 -16 -79 -49 -119 -111 -36 -57 -40 -106 -14 -160 l17
-36 -38 -54 c-76 -111 -56 -188 79 -301 17 -14 38 -28 48 -31 9 -3 18 -15 18
-27 1 -12 3 -39 4 -59 2 -35 0 -37 -49 -59 -120 -51 -195 -92 -251 -136 -45
-36 -69 -48 -95 -49 -73 -1 -106 -30 -74 -65 16 -18 37 -19 285 -19 l269 0 15
24 c9 13 24 23 33 21 9 -1 22 1 27 6 13 9 26 1 41 -26 16 -29 103 -33 156 -6
39 19 40 19 59 0 18 -18 33 -19 261 -17 180 2 242 6 245 15 6 16 -34 52 -84
78 -49 26 -78 51 -248 217 -161 158 -173 167 -201 168 -12 0 -55 -22 -95 -48
-75 -49 -188 -106 -195 -99 -2 2 -5 21 -7 42 -1 28 3 40 17 49 45 25 120 98
147 141 20 32 26 100 9 110 -6 4 -8 10 -6 14 3 4 -13 27 -35 50 -21 24 -39 45
-39 47 0 1 5 15 12 31 38 95 31 143 -37 221 -29 34 -101 84 -117 82 -2 -1 -19
-7 -38 -13z m40 -102 c14 -17 -1 -47 -48 -97 -24 -26 -24 -28 -9 -61 25 -52
15 -118 -25 -175 -59 -82 -96 -57 -43 29 51 79 56 110 30 172 -16 38 -7 64 36
112 36 39 41 41 59 20z m367 -652 c4 -10 -20 -38 -65 -75 -81 -66 -379 -190
-467 -195 -33 -2 -66 -5 -73 -8 -8 -3 -12 0 -10 7 8 26 209 117 241 110 4 -1
7 2 7 6 0 5 6 9 13 9 18 0 235 107 277 137 36 26 70 30 77 9z"/>
<path d="M3871 2768 c-4 -12 -4 -40 0 -62 5 -23 8 -44 9 -48 0 -4 -17 -10 -37
-13 -66 -11 -144 -47 -165 -76 -12 -16 -24 -26 -28 -24 -8 5 -42 -26 -70 -61
-34 -42 -61 -121 -64 -188 -1 -14 -11 -24 -31 -31 -48 -16 -55 -23 -46 -48 6
-17 16 -22 42 -22 19 0 34 -4 35 -10 4 -49 22 -98 51 -142 20 -29 39 -53 44
-53 5 0 9 -6 9 -14 0 -29 128 -93 205 -103 22 -3 41 -7 43 -8 2 -2 4 -33 6
-70 1 -42 7 -69 15 -74 17 -11 74 -6 100 8 13 8 22 8 26 1 4 -6 11 -8 16 -4 5
3 16 1 23 -5 10 -8 97 -11 294 -8 286 3 312 7 312 43 0 35 -31 39 -310 38
l-272 -1 -22 -25 c-24 -28 -68 -30 -93 -5 -15 15 -27 96 -14 98 46 6 72 12
101 21 19 7 38 11 43 10 4 -1 7 2 7 7 0 5 9 12 19 16 82 26 183 173 194 284 4
39 18 60 40 61 4 0 7 9 7 20 0 13 -7 20 -19 20 -24 0 -32 11 -36 53 -3 41 -50
135 -80 162 -68 61 -113 90 -167 108 -25 8 -49 13 -52 9 -3 -3 -6 -1 -6 5 0 6
-6 11 -12 10 -56 -2 -56 -1 -52 73 l4 70 -30 0 c-22 0 -33 -6 -39 -22z m187
-228 c65 -28 144 -111 165 -174 19 -55 15 -57 -80 -50 -80 5 -113 12 -113 22
1 4 19 20 41 35 44 30 49 60 13 65 -21 3 -41 -16 -70 -64 -10 -17 -13 -16 -30
16 -10 19 -19 37 -19 40 -2 10 -35 85 -43 100 -5 8 -13 15 -18 15 -7 0 -35
-66 -42 -100 -2 -5 -8 -27 -14 -48 l-11 -38 -26 24 c-35 32 -87 67 -99 67 -27
0 -19 -33 17 -68 55 -52 55 -70 4 -98 -24 -12 -43 -20 -43 -18 0 2 -16 -2 -35
-10 -19 -8 -35 -12 -35 -9 0 3 -6 0 -14 -6 -22 -18 -24 5 -10 81 15 79 25 99
71 149 85 92 266 124 391 69z m-90 -247 c7 -7 10 -13 6 -13 -5 0 -3 -5 3 -11
17 -17 -11 -67 -42 -75 -27 -7 -72 16 -82 42 -8 21 16 72 35 76 26 6 65 -4 80
-19z m268 -60 c-14 -96 -37 -145 -95 -204 -67 -66 -113 -82 -238 -81 -96 0
-142 15 -210 69 -40 32 -88 111 -98 161 -4 20 -1 22 38 17 23 -3 64 -7 91 -10
59 -5 81 -21 43 -30 -32 -8 -49 -28 -53 -60 -4 -44 53 -26 85 26 17 27 19 28
33 12 9 -10 26 -50 37 -89 22 -75 43 -97 61 -64 6 11 8 20 4 20 -3 0 -2 6 3
13 9 11 37 102 38 121 0 22 25 14 65 -19 46 -38 61 -42 80 -21 9 12 4 23 -31
61 -25 28 -39 49 -33 55 8 8 157 66 178 69 4 0 5 -20 2 -46z"/>
<path d="M4322 2733 c-17 -21 -19 -29 -9 -31 8 -2 19 -14 25 -27 16 -35 37
-31 62 12 l22 37 -22 18 c-31 25 -53 22 -78 -9z"/>
<path d="M4475 2392 c-61 -5 -72 -11 -69 -34 1 -13 3 -51 3 -84 1 -57 3 -61
24 -60 17 1 22 7 23 31 1 17 2 36 3 43 2 18 38 14 47 -5 8 -21 11 -29 13 -43
2 -17 31 -11 32 8 2 34 -3 67 -12 76 -4 5 -24 9 -44 9 -19 0 -35 4 -35 9 0 4
0 11 0 15 0 4 18 6 39 4 26 -1 40 2 44 12 6 17 -19 24 -68 19z"/>
<path d="M277 2093 c-15 -14 -6 -52 13 -58 33 -10 72 39 45 57 -13 10 -49 10
-58 1z"/>
<path d="M4420 2007 c0 -6 -3 -7 -7 -4 -6 7 -33 -11 -33 -22 0 -3 11 -19 25
-35 14 -16 25 -33 25 -38 0 -20 31 -5 45 21 8 16 20 31 26 33 19 6 -24 49 -54
52 -15 2 -27 -1 -27 -7z"/>
<path d="M3345 1980 c-11 -4 -28 -17 -37 -28 -15 -19 -15 -21 0 -35 48 -44
117 -36 117 13 0 30 -50 62 -80 50z"/>
<path d="M3060 1783 c-19 -7 -36 -13 -37 -13 -12 -1 1 -41 15 -49 29 -15 707
-14 720 2 14 18 -3 54 -30 63 -41 13 -628 10 -668 -3z"/>
<path d="M4791 1575 c-43 -56 -20 -137 42 -143 21 -1 65 28 68 46 12 73 -5
108 -57 118 -26 5 -35 1 -53 -21z m67 -13 c7 -5 14 -25 16 -46 3 -27 -1 -39
-14 -46 -39 -21 -55 -9 -65 49 -3 18 22 51 39 51 6 0 17 -4 24 -8z"/>
<path d="M4820 1521 c0 -33 13 -47 27 -28 14 20 9 52 -10 55 -13 3 -17 -3 -17
-27z"/>
<path d="M3689 1561 c-30 -29 -44 -72 -40 -118 1 -16 61 -78 89 -92 18 -10 26
-9 45 5 84 65 94 141 25 199 -35 29 -92 32 -119 6z"/>
<path d="M115 1510 c-18 -6 -19 -29 -21 -488 -3 -565 -11 -523 104 -528 63 -4
74 -1 92 18 19 20 20 35 21 232 1 190 2 230 7 260 1 5 49 -61 106 -146 57 -86
113 -165 125 -177 l21 -21 20 22 c10 13 45 64 77 113 104 161 144 216 154 210
5 -4 7 -11 3 -16 -8 -13 -12 -408 -5 -434 15 -50 25 -56 102 -60 95 -5 118 7
115 65 0 22 3 40 7 40 5 0 5 4 2 10 -6 9 -9 103 -5 125 1 6 1 15 0 20 -1 6 -3
176 -4 378 -1 285 -5 370 -14 376 -7 4 -49 7 -94 6 -95 -2 -80 12 -185 -175
-67 -119 -100 -177 -163 -283 l-17 -29 -38 69 c-21 37 -45 76 -53 86 -8 9 -12
17 -8 17 3 0 -4 17 -17 38 -13 20 -47 81 -75 134 -78 144 -77 143 -165 144
-40 0 -82 -3 -92 -6z"/>
<path d="M1245 1510 l-30 -5 -3 -470 c-1 -259 0 -480 3 -492 3 -12 15 -27 26
-34 28 -15 588 -14 603 1 6 6 11 52 11 101 1 110 -2 112 -119 110 -45 -2 -132
-3 -195 -4 l-115 -1 0 88 c-1 48 2 93 6 99 4 7 61 11 160 11 88 1 161 6 171
12 14 8 19 26 22 82 5 104 8 102 -191 102 l-164 0 0 100 0 100 183 0 c100 -1
190 2 199 5 10 4 20 21 24 39 6 36 -1 145 -11 155 -8 7 -536 8 -580 1z"/>
<path d="M2168 1512 c-201 -2 -217 -4 -223 -21 -10 -32 3 -163 17 -172 14 -10
39 -11 145 -9 l71 1 -2 -363 c-1 -200 2 -376 6 -393 12 -45 31 -57 100 -62 53
-4 67 -2 88 15 24 19 25 26 27 134 1 62 2 115 3 118 2 3 1 10 0 15 -6 28 -4
105 3 105 5 0 5 5 2 11 -4 6 -7 45 -6 87 1 94 1 107 1 130 0 9 0 44 0 77 0 33
-1 74 -3 90 l-2 30 105 3 c133 4 138 7 136 107 -1 44 -7 80 -15 88 -13 13 -68
14 -453 9z"/>
<path d="M2928 1512 c-106 -2 -139 -6 -148 -18 -10 -11 -14 -123 -16 -464 -1
-247 1 -460 4 -472 16 -55 26 -62 97 -64 59 -2 70 0 91 21 23 23 24 29 24 183
l0 159 35 -1 c33 -1 38 -7 145 -171 61 -93 115 -173 119 -177 6 -7 117 -13
166 -9 11 0 26 10 33 22 11 18 8 30 -29 97 -23 42 -68 118 -101 169 -32 51
-58 95 -58 98 0 4 29 35 65 69 74 72 105 133 109 216 3 53 -21 155 -41 169 -4
3 -9 12 -10 18 -6 26 -80 90 -133 116 -79 38 -130 44 -352 39z m268 -237 c32
-25 54 -73 45 -100 -2 -5 -4 -17 -5 -25 -4 -42 -39 -75 -89 -84 -24 -4 -125
-9 -154 -7 -10 1 -12 31 -10 119 1 64 5 120 10 123 4 3 43 4 87 3 70 -2 85 -5
116 -29z"/>
<path d="M4051 1508 c-13 -4 -21 -17 -22 -30 0 -13 -1 -229 -2 -480 -2 -537
-10 -501 103 -505 55 -2 72 1 91 16 25 20 25 16 28 266 l1 70 78 -1 c168 -1
287 67 347 199 55 120 29 281 -60 370 -42 42 -111 80 -165 92 -47 10 -373 13
-399 3z m376 -228 c59 -47 71 -95 38 -163 -24 -51 -55 -64 -145 -63 l-74 1 -1
120 c0 66 3 122 7 125 4 3 39 5 78 3 54 -1 76 -6 97 -23z"/>
<path d="M3730 1272 c-60 -4 -76 -11 -87 -34 -6 -14 -9 -155 -9 -360 l2 -337
28 -26 c27 -25 34 -26 98 -22 50 3 72 9 81 21 16 22 18 720 2 735 -15 14 -76
27 -115 23z"/>
<path d="M897 240 c-26 -3 -47 -9 -46 -15 3 -26 21 -44 39 -40 13 3 20 -2 21
-13 0 -9 2 -42 3 -72 2 -30 4 -58 5 -61 2 -9 41 -19 42 -11 1 6 6 87 8 139 1
16 6 21 19 18 28 -5 44 9 40 35 -2 19 -9 23 -43 24 -22 1 -61 -1 -88 -4z"/>
<path d="M1586 216 c3 -17 10 -35 14 -41 3 -5 19 -40 35 -77 15 -37 34 -69 43
-73 17 -6 42 11 42 31 0 12 42 120 61 156 12 24 12 25 -15 30 -22 4 -28 -2
-53 -58 -15 -35 -30 -64 -34 -64 -6 0 -44 102 -42 111 1 4 -11 9 -28 11 -29 4
-30 4 -23 -26z"/>
<path d="M1911 240 l-55 -5 -1 -80 c-1 -44 1 -91 5 -105 6 -23 11 -25 71 -25
60 0 64 1 65 22 1 13 -1 23 -5 24 -3 0 -21 2 -38 3 -18 1 -36 6 -40 10 -9 9
18 27 29 20 5 -3 17 -2 28 1 23 7 27 44 5 46 -8 1 -25 2 -37 3 -13 0 -24 9
-26 19 -3 17 4 19 64 20 16 0 22 6 22 23 0 27 -15 31 -87 24z"/>
<path d="M2420 225 c-10 -27 7 -46 34 -39 20 5 22 1 23 -33 3 -122 2 -121 23
-126 11 -3 21 -1 21 4 1 5 3 14 4 19 1 6 3 39 4 75 l1 65 31 -4 c28 -3 30 -2
27 27 l-3 31 -79 1 c-69 0 -79 -2 -86 -20z"/>
<path d="M2695 240 l-30 -5 0 -85 c-1 -113 3 -129 26 -127 10 1 20 7 20 14 1
7 3 18 4 23 1 6 3 15 4 20 2 15 40 -12 47 -32 6 -19 38 -33 54 -23 7 4 4 18
-9 40 -17 30 -18 35 -5 46 30 25 35 47 19 78 -8 16 -20 33 -26 37 -21 13 -74
20 -104 14z m77 -63 c12 -19 10 -25 -13 -37 -25 -14 -49 2 -44 28 2 9 4 17 4
17 13 6 47 1 53 -8z"/>
<path d="M2975 227 c-8 -12 -15 -29 -15 -39 0 -10 -4 -18 -10 -18 -5 0 -10 -6
-10 -14 0 -8 -8 -34 -18 -58 -10 -24 -16 -51 -14 -60 4 -19 42 -20 42 -1 0 32
73 40 103 10 24 -24 38 -28 56 -18 14 9 -81 206 -103 214 -9 4 -22 -3 -31 -16z
m45 -92 c7 -8 11 -15 9 -16 -14 -3 -49 -5 -49 -3 0 1 3 9 6 18 8 20 18 20 34
1z"/>
<path d="M3195 236 c-14 -10 -18 -29 -20 -93 -2 -92 7 -126 32 -121 10 2 18
10 19 18 1 8 2 31 3 50 l3 35 14 -33 c8 -17 18 -32 23 -32 5 0 21 16 35 35 15
19 30 35 35 35 4 0 6 -22 4 -49 -4 -50 3 -66 26 -52 17 11 27 64 27 146 -1 63
-3 70 -21 73 -15 2 -30 -10 -53 -43 -17 -25 -35 -45 -40 -45 -5 0 -18 18 -31
40 -27 49 -33 53 -56 36z"/>
<path d="M3479 243 c-6 -47 -5 -194 2 -204 9 -16 131 -20 141 -5 9 13 -10 47
-25 45 -7 -1 -24 -1 -39 0 -33 1 -38 21 -5 21 37 0 67 12 67 26 0 18 -16 26
-56 26 -61 0 -52 38 10 40 24 1 40 7 47 19 13 25 -1 30 -64 28 -30 -1 -59 1
-65 5 -7 4 -12 4 -13 -1z"/>
<path d="M1109 226 c-4 -47 -3 -180 2 -187 3 -5 15 -11 27 -14 19 -3 22 1 22
31 0 43 11 43 44 0 39 -52 87 -40 54 13 -10 16 -8 26 7 55 19 35 19 37 1 70
-12 23 -28 37 -46 41 -40 9 -110 3 -111 -9z m89 -42 c28 -8 28 -30 0 -45 -18
-9 -24 -8 -34 6 -7 9 -10 23 -7 31 6 16 9 16 41 8z"/>
<path d="M1423 222 c-13 -22 -73 -170 -73 -182 0 -20 34 -19 54 3 19 21 37 24
87 18 4 -1 9 -10 12 -20 3 -13 12 -18 23 -16 11 2 22 4 26 4 10 1 -5 39 -64
169 -21 45 -46 54 -65 24z m47 -88 c0 -8 -2 -14 -4 -14 -2 0 -11 -3 -20 -6
-19 -7 -21 11 -3 30 14 16 27 11 27 -10z"/>
<path d="M2095 141 c0 -53 4 -101 7 -107 4 -6 35 -10 70 -9 60 1 63 3 63 26 0
21 -5 24 -43 27 l-42 3 -2 57 c0 31 -2 62 -3 67 -2 6 -3 15 -4 21 0 6 -11 12
-24 12 -22 0 -23 -3 -22 -97z"/>
<path d="M3719 212 c-3 -71 1 -163 6 -172 4 -6 34 -9 68 -8 58 3 61 4 61 28 0
22 -4 25 -36 26 -19 1 -40 4 -46 8 -6 4 -10 35 -9 73 2 61 0 66 -20 69 -19 3
-23 -1 -24 -24z"/>
<path d="M637 160 c-29 -23 -27 -52 6 -75 17 -12 24 -12 47 0 37 19 43 39 19
69 -25 31 -38 32 -72 6z"/>
<path d="M4027 162 c-27 -30 -15 -70 25 -85 26 -9 70 30 62 57 -13 45 -59 59
-87 28z"/>
<path d="M4451 161 c-26 -26 -27 -53 -3 -74 24 -22 44 -21 70 2 37 31 27 74
-20 86 -19 5 -32 1 -47 -14z"/>
<path d="M130 153 c-25 -18 -26 -49 -1 -63 31 -16 49 -12 67 15 15 24 15 27 0
44 -19 21 -39 23 -66 4z"/>
<path d="M308 144 c-22 -47 25 -83 63 -48 15 14 28 54 16 54 -1 0 -17 4 -35 9
-30 9 -34 7 -44 -15z"/>
<path d="M441 151 c-24 -24 -18 -52 13 -67 43 -20 91 39 57 70 -23 21 -47 20
-70 -3z"/>
<path d="M4236 148 c-15 -21 -14 -24 4 -42 19 -19 90 -30 90 -14 0 4 6 8 14 8
22 0 27 29 9 50 -25 29 -96 28 -117 -2z"/>
</g>
</svg>
